<!-- <svg xmlns="http://www.w3.org/2000/svg" width="16" height="16" viewBox="0 0 105 105" fill="none">
	<path
		d="M26.612 102.4c-.534 0-1-.2-1.4-.6-.4-.4-.6-.867-.6-1.4 0-.267.1-.667.3-1.2l34.2-82c.533-1.2 1.4-1.8 2.6-1.8h3.9c.533 0 1 .2 1.4.6.4.4.6.867.6 1.4 0 .467-.067.867-.2 1.2l-34.3 82c-.534 1.2-1.4 1.8-2.6 1.8h-3.9zm27.734 0c-.533 0-1-.2-1.4-.6-.4-.4-.6-.867-.6-1.4 0-.267.1-.667.3-1.2l34.2-82c.533-1.2 1.4-1.8 2.6-1.8h3.9c.533 0 1 .2 1.4.6.4.4.6.867.6 1.4 0 .467-.067.867-.2 1.2l-34.3 82c-.533 1.2-1.4 1.8-2.6 1.8h-3.9z"
		fill="#c5c5c5"
	/>
</svg> -->
<svg xmlns="http://www.w3.org/2000/svg" width="16" height="16" viewBox="0 0 16 16" fill="none">
	<path
		d="M4 15.6c-.08 0-.152-.03-.213-.091-.06-.061-.091-.132-.091-.213 0-.04.015-.101.046-.183l5.2-12.485c.081-.183.213-.274.396-.274h.594c.081 0 .152.03.213.091.061.061.091.132.091.213 0 .071-.01.132-.03.183l-5.215 12.485c-.081.183-.213.274-.396.274h-.594zm4.223 0c-.081 0-.152-.03-.213-.091-.061-.061-.091-.132-.091-.213 0-.04.015-.101.046-.183l5.2-12.485c.081-.183.213-.274.396-.274h.594c.081 0 .152.03.213.091.061.061.091.132.091.213 0 .071-.01.132-.03.183l-5.215 12.485c-.081.183-.213.274-.396.274h-.594z"
		fill="#c5c5c5"
	/>
</svg>
