
<svg xmlns="http://www.w3.org/2000/svg" width="16" height="16" viewBox="0 0 16 16" fill="currentColor">
	<path
		d="M4 15.6c-.08 0-.152-.03-.213-.091-.06-.061-.091-.132-.091-.213 0-.04.015-.101.046-.183l5.2-12.485c.081-.183.213-.274.396-.274h.594c.081 0 .152.03.213.091.061.061.091.132.091.213 0 .071-.01.132-.03.183l-5.215 12.485c-.081.183-.213.274-.396.274h-.594zm4.223 0c-.081 0-.152-.03-.213-.091-.061-.061-.091-.132-.091-.213 0-.04.015-.101.046-.183l5.2-12.485c.081-.183.213-.274.396-.274h.594c.081 0 .152.03.213.091.061.061.091.132.091.213 0 .071-.01.132-.03.183l-5.215 12.485c-.081.183-.213.274-.396.274h-.594z"
	/>
</svg>
